@startuml
'https://plantuml.com/class-diagram

abstract class TypedUri {
    asUri(): Uri

    abstract title(): String
    abstract author(): String
    abstract cover(): Bitmap
    abstract getOnClickListener(): View.OnClickListener

    static fromFile(context: Context, file: File)
}

class TxtUri {
    asUri(): Uri

    abstract title(): String
    abstract author(): String
    abstract cover(): Bitmap
    abstract getOnClickListener(): View.OnClickListener
}

TypedUri <|-- TxtUri

class PdfUri {
    asUri(): Uri

    abstract title(): String
    abstract author(): String
    abstract cover(): Bitmap
    abstract getOnClickListener(): View.OnClickListener
}

TypedUri <|-- PdfUri

@enduml